<svg width="21" height="30" viewBox="0 0 21 30" fill="none" xmlns="http://www.w3.org/2000/svg">
<g id="Group 4">
<path id="Vector" d="M18.8488 16.361H18.8561C18.8561 16.361 16.0976 20.4073 13.7781 23.4146C11.7732 26.0122 11.1878 28.2366 11.0195 29.3122C10.9537 29.7073 10.6317 30 10.2439 30C9.85612 30 9.53417 29.7073 9.46832 29.3122C9.30002 28.2366 8.71466 26.0122 6.70978 23.4146C6.40246 23.0122 6.08783 22.5951 5.77319 22.1707L13.3464 13.1707L19.4415 5.94146C20.1147 7.35365 20.4878 8.93414 20.4878 10.6098C20.4878 12.7317 19.8805 14.7 18.8488 16.361Z" fill="#2C7488"/>
<path id="Vector_2" d="M13.3463 13.1707L5.77316 22.1707C3.70975 19.4049 1.6317 16.361 1.6317 16.361H1.63902C1.4195 16.0098 1.22194 15.6512 1.05365 15.278L7.14145 8.04878C6.56341 8.7439 6.2195 9.63659 6.2195 10.6098C6.2195 12.8341 8.0195 14.6341 10.2439 14.6341C11.4951 14.6341 12.6146 14.0634 13.3463 13.1707Z" fill="#2C7488"/>
<path id="Vector_3" d="M13.4634 0.541463L7.1927 7.99024L2.3927 3.80488C4.26587 1.47805 7.09026 0 10.2439 0C11.3707 0 12.4537 0.190244 13.4634 0.541463Z" fill="#2C7488"/>
<path id="Vector_4" d="M7.19268 7.99025L7.14146 8.04879L1.05366 15.2781C0.380487 13.8659 0 12.2854 0 10.6098C0 8.01952 0.9 5.64147 2.39268 3.80489L7.19268 7.99025Z" fill="#2C7488"/>
<path id="Vector_5" d="M13.3464 13.1707C13.9244 12.4756 14.2683 11.5829 14.2683 10.6097C14.2683 8.38536 12.4683 6.58536 10.2439 6.58536C8.9927 6.58536 7.87319 7.15609 7.14148 8.04877L13.4634 0.541457C16.0903 1.43414 18.2415 3.40243 19.4415 5.94146L13.3464 13.1707Z" fill="#2C7488"/>
</g>
</svg>
