<svg width="184" height="65" viewBox="0 0 184 65" fill="none" xmlns="http://www.w3.org/2000/svg">
<path d="M16.9427 29.2188C16.5469 30.0938 16.1094 31.1458 15.6302 32.375C15.1511 33.6042 14.6302 34.8854 14.0677 36.2188C13.5052 37.5521 12.9011 38.875 12.2552 40.1875C11.6302 41.5 10.9636 42.6771 10.2552 43.7188C9.56775 44.7396 8.849 45.5729 8.099 46.2188C7.36983 46.8646 6.61983 47.1875 5.849 47.1875C5.20317 47.1875 4.67192 47.0833 4.25525 46.875C3.83858 46.6875 3.51567 46.4375 3.2865 46.125C3.05733 45.8333 2.89067 45.5104 2.7865 45.1562C2.70317 44.7812 2.6615 44.4271 2.6615 44.0938C2.6615 43.5938 2.73442 43.0833 2.88025 42.5625C3.04692 42.0417 3.24483 41.5625 3.474 41.125L15.4427 19.0938C15.9636 18.1771 16.4532 17.4583 16.9115 16.9375C17.3907 16.4167 17.8282 16.0312 18.224 15.7812C18.6407 15.5312 19.0052 15.3854 19.3177 15.3438C19.6302 15.2812 19.8907 15.25 20.099 15.25C20.474 15.25 20.8177 15.3854 21.1302 15.6562C21.4427 15.9062 21.599 16.375 21.599 17.0625C21.599 17.7292 21.4219 18.6458 21.0677 19.8125C20.7136 20.9792 20.0573 22.4792 19.099 24.3125C20.724 24.1875 22.3282 23.9167 23.9115 23.5C25.4948 23.0625 26.9115 22.4688 28.1615 21.7188C29.4323 20.9688 30.4532 20.0625 31.224 19C31.9948 17.9167 32.3802 16.6667 32.3802 15.25C32.3802 14 32.1719 12.8125 31.7552 11.6875C31.3594 10.5417 30.7657 9.54167 29.974 8.6875C29.2032 7.8125 28.2448 7.125 27.099 6.625C25.9532 6.10417 24.6302 5.84375 23.1302 5.84375C21.0886 5.84375 19.3282 6.04167 17.849 6.4375C16.3907 6.8125 15.1302 7.3125 14.0677 7.9375C13.0261 8.5625 12.1511 9.28125 11.4427 10.0938C10.7344 10.9062 10.1198 11.7292 9.599 12.5625C9.099 13.3958 8.65108 14.2188 8.25525 15.0312C7.85942 15.8438 7.44275 16.5625 7.00525 17.1875C6.58858 17.8125 6.10942 18.3229 5.56775 18.7188C5.02608 19.0938 4.35942 19.2812 3.56775 19.2812C2.54692 19.2812 1.7865 19.0208 1.2865 18.5C0.807332 17.9792 0.567749 17.2396 0.567749 16.2812C0.567749 15.3229 0.828166 14.2812 1.349 13.1562C1.86983 12.0104 2.60942 10.8646 3.56775 9.71875C4.52608 8.57292 5.68233 7.47917 7.0365 6.4375C8.4115 5.375 9.95317 4.4375 11.6615 3.625C13.3698 2.8125 15.224 2.16667 17.224 1.6875C19.2448 1.1875 21.3698 0.9375 23.599 0.9375C25.6823 0.9375 27.6823 1.23958 29.599 1.84375C31.5365 2.42708 33.2448 3.3125 34.724 4.5C36.2032 5.6875 37.3802 7.17708 38.2552 8.96875C39.1511 10.7396 39.599 12.8229 39.599 15.2188C39.599 17.4062 39.0677 19.3854 38.0052 21.1562C36.9636 22.9062 35.5469 24.3958 33.7552 25.625C31.9844 26.8333 29.9323 27.7708 27.599 28.4375C25.2657 29.0833 22.8073 29.4062 20.224 29.4062C19.6823 29.4062 19.1302 29.3958 18.5677 29.375C18.0261 29.3542 17.4844 29.3021 16.9427 29.2188ZM38.4722 36.9688C38.2431 37.4479 38.0139 38.0104 37.7847 38.6562C37.5764 39.2812 37.4722 39.8438 37.4722 40.3438C37.4722 40.6562 37.5347 40.9062 37.6597 41.0938C37.7847 41.2812 38.0243 41.375 38.3785 41.375C38.816 41.375 39.3577 41.25 40.0035 41C40.6702 40.7292 41.3785 40.3854 42.1285 39.9688C42.8993 39.5312 43.691 39.0417 44.5035 38.5C45.3368 37.9375 46.1597 37.3646 46.9722 36.7812C47.7847 36.1771 48.5556 35.5833 49.2847 35C50.0347 34.3958 50.7014 33.8438 51.2847 33.3438C51.4514 33.1979 51.6493 33.0938 51.8785 33.0312C52.1077 32.9688 52.3056 32.9375 52.4722 32.9375C52.8889 32.9375 53.2327 33.0833 53.5035 33.375C53.7743 33.6667 53.9097 34.0521 53.9097 34.5312C53.9097 34.9688 53.7639 35.4583 53.4722 36C53.1806 36.5417 52.6702 37.0729 51.941 37.5938C50.6077 38.8229 49.2639 39.9896 47.9097 41.0938C46.5556 42.1979 45.2014 43.1771 43.8472 44.0312C42.5139 44.8646 41.1806 45.5312 39.8472 46.0312C38.5347 46.5312 37.2535 46.7812 36.0035 46.7812C35.1493 46.7812 34.4306 46.6667 33.8472 46.4375C33.2847 46.2083 32.8264 45.8958 32.4722 45.5C32.1389 45.1042 31.8993 44.6354 31.7535 44.0938C31.6077 43.5521 31.5347 42.9792 31.5347 42.375C31.5347 41.3542 31.6806 40.3125 31.9722 39.25C32.2847 38.1667 32.6493 37.1771 33.066 36.2812C33.7952 34.6562 34.5347 33.0417 35.2847 31.4375C36.0347 29.8333 36.7222 28.3646 37.3472 27.0312L46.816 6.875C47.191 6.0625 47.691 5.48958 48.316 5.15625C48.9618 4.82292 49.6077 4.65625 50.2535 4.65625C50.8993 4.65625 51.4827 4.83333 52.0035 5.1875C52.5452 5.54167 52.816 6.11458 52.816 6.90625C52.816 7.28125 52.7222 7.67708 52.5347 8.09375C52.3681 8.51042 52.1493 8.95833 51.8785 9.4375C51.3577 10.4167 50.7327 11.6146 50.0035 13.0312C49.2952 14.4479 48.5243 15.9896 47.691 17.6562C46.8785 19.3229 46.0347 21.0625 45.1597 22.875C44.3056 24.6667 43.4618 26.4167 42.6285 28.125C41.816 29.8333 41.0452 31.4583 40.316 33C39.6077 34.5208 38.9931 35.8438 38.4722 36.9688ZM61.658 28.9375C60.6788 28.9375 59.7309 29.1875 58.8142 29.6875C57.8976 30.1875 57.0851 30.8438 56.3767 31.6562C55.6684 32.4688 55.1059 33.3854 54.6892 34.4062C54.2726 35.4062 54.0642 36.4167 54.0642 37.4375C54.0642 37.8542 54.0851 38.2917 54.1267 38.75C54.1892 39.1875 54.3142 39.5938 54.5017 39.9688C54.6892 40.3438 54.9497 40.6562 55.283 40.9062C55.6372 41.1562 56.1059 41.2812 56.6892 41.2812C57.1476 41.2812 57.6788 41.0833 58.283 40.6875C58.908 40.2708 59.5434 39.75 60.1892 39.125C60.8559 38.4792 61.5017 37.7812 62.1267 37.0312C62.7517 36.2604 63.3142 35.5104 63.8142 34.7812C64.3142 34.0521 64.7205 33.3958 65.033 32.8125C65.3455 32.2292 65.5017 31.8021 65.5017 31.5312C65.5017 31.1354 65.3663 30.7812 65.0955 30.4688C64.8247 30.1354 64.4913 29.8542 64.0955 29.625C63.6997 29.3958 63.2726 29.2292 62.8142 29.125C62.3767 29 61.9913 28.9375 61.658 28.9375ZM83.3142 37C82.9392 37.3542 82.4392 37.8438 81.8142 38.4688C81.1892 39.0938 80.4705 39.7708 79.658 40.5C78.8663 41.2292 78.0122 41.9688 77.0955 42.7188C76.1997 43.4479 75.2726 44.1146 74.3142 44.7188C73.3767 45.3229 72.4497 45.8125 71.533 46.1875C70.6163 46.5833 69.7517 46.7812 68.9392 46.7812C68.2101 46.7812 67.5851 46.625 67.0642 46.3125C66.5434 46 66.1059 45.5938 65.7517 45.0938C65.4184 44.5938 65.1684 44.0312 65.0017 43.4062C64.8351 42.7604 64.7517 42.1042 64.7517 41.4375C64.7517 41 64.783 40.5729 64.8455 40.1562C64.908 39.7188 65.0122 39.3125 65.158 38.9375C64.5122 39.8125 63.7726 40.7188 62.9392 41.6562C62.1267 42.5729 61.2413 43.4167 60.283 44.1875C59.3455 44.9375 58.3559 45.5521 57.3142 46.0312C56.2934 46.5312 55.2517 46.7812 54.1892 46.7812C53.6476 46.7812 53.0122 46.6667 52.283 46.4375C51.5747 46.2292 50.8976 45.875 50.2517 45.375C49.6059 44.875 49.0642 44.2292 48.6267 43.4375C48.1892 42.6458 47.9705 41.6771 47.9705 40.5312C47.9705 39.6771 48.0955 38.6562 48.3455 37.4688C48.6163 36.2812 49.0122 35.0521 49.533 33.7812C50.0747 32.4896 50.7517 31.2188 51.5642 29.9688C52.3976 28.7188 53.3767 27.6042 54.5017 26.625C55.6267 25.625 56.908 24.8229 58.3455 24.2188C59.783 23.5938 61.3872 23.2812 63.158 23.2812C64.0747 23.2812 64.8767 23.3958 65.5642 23.625C66.2517 23.8542 66.8351 24.1042 67.3142 24.375C67.8559 24.7083 68.3351 25.0729 68.7517 25.4688C69.1059 25.2812 69.4705 25.1042 69.8455 24.9375C70.158 24.7917 70.4809 24.6667 70.8142 24.5625C71.1684 24.4375 71.4705 24.375 71.7205 24.375C72.5122 24.375 73.158 24.5938 73.658 25.0312C74.158 25.4688 74.408 25.9479 74.408 26.4688C74.408 26.6146 74.3976 26.7292 74.3767 26.8125C74.2726 27.2083 74.1059 27.7083 73.8767 28.3125C73.6684 28.9167 73.4288 29.5938 73.158 30.3438C72.8872 31.0729 72.6059 31.8438 72.3142 32.6562C72.0434 33.4479 71.7934 34.2292 71.5642 35C71.3351 35.7708 71.1476 36.5 71.0017 37.1875C70.8559 37.8542 70.783 38.4271 70.783 38.9062C70.783 39.5312 70.8872 40.0521 71.0955 40.4688C71.3038 40.8646 71.658 41.0625 72.158 41.0625C72.4705 41.0625 72.8351 40.9688 73.2517 40.7812C73.6892 40.5729 74.158 40.3021 74.658 39.9688C75.158 39.6354 75.6684 39.2604 76.1892 38.8438C76.7309 38.4062 77.2517 37.9688 77.7517 37.5312C78.9184 36.4896 80.158 35.3021 81.4705 33.9688C81.8038 33.6979 82.1267 33.5625 82.4392 33.5625C82.8559 33.5625 83.1997 33.7708 83.4705 34.1875C83.7622 34.5833 83.908 35.0312 83.908 35.5312C83.908 36.1146 83.7101 36.6042 83.3142 37ZM84.6562 27.0312C85.0729 26.1354 85.5938 25.4688 86.2188 25.0312C86.8438 24.5938 87.4583 24.375 88.0625 24.375C88.5625 24.375 89.0104 24.5625 89.4062 24.9375C89.8021 25.2917 90 25.8229 90 26.5312C90 26.8021 89.9688 27.0938 89.9062 27.4062C89.8438 27.7188 89.7292 28.0521 89.5625 28.4062C90.0208 27.8229 90.6771 27.2292 91.5312 26.625C92.3854 26 93.3229 25.4479 94.3438 24.9688C95.3854 24.4688 96.4479 24.0625 97.5312 23.75C98.6354 23.4375 99.6771 23.2812 100.656 23.2812C101.76 23.2812 102.677 23.5521 103.406 24.0938C104.156 24.6146 104.531 25.5104 104.531 26.7812C104.531 27.5312 104.417 28.3125 104.188 29.125C103.958 29.9375 103.656 30.75 103.281 31.5625C102.927 32.375 102.521 33.1771 102.062 33.9688C101.625 34.7396 101.188 35.4688 100.75 36.1562C100.312 36.8438 99.9062 37.4792 99.5312 38.0625C99.1771 38.625 98.8958 39.0938 98.6875 39.4688C98.4167 39.8021 98.2812 40.1875 98.2812 40.625C98.2812 40.7917 98.3333 40.9375 98.4375 41.0625C98.5417 41.1875 98.7083 41.25 98.9375 41.25C99.0833 41.25 99.25 41.2396 99.4375 41.2188C99.625 41.1771 99.8542 41.0625 100.125 40.875C101.25 40.4583 102.396 39.9375 103.562 39.3125C104.75 38.6875 105.885 38.0312 106.969 37.3438C108.052 36.6354 109.042 35.9375 109.938 35.25C110.854 34.5417 111.615 33.9062 112.219 33.3438C112.385 33.1979 112.552 33.0938 112.719 33.0312C112.885 32.9688 113.042 32.9375 113.188 32.9375C113.542 32.9375 113.812 33.0729 114 33.3438C114.208 33.6146 114.312 33.9583 114.312 34.375C114.312 35.0208 114.104 35.7396 113.688 36.5312C113.292 37.3229 112.656 38.0625 111.781 38.75C110.594 39.6042 109.5 40.3854 108.5 41.0938C107.521 41.8021 106.51 42.4688 105.469 43.0938C104.448 43.6979 103.344 44.2708 102.156 44.8125C100.99 45.3333 99.6146 45.8229 98.0312 46.2812C97.4896 46.4479 96.9896 46.5729 96.5312 46.6562C96.0938 46.7396 95.6875 46.7812 95.3125 46.7812C94.2083 46.7812 93.3958 46.4792 92.875 45.875C92.375 45.25 92.125 44.3854 92.125 43.2812C92.125 43.1354 92.125 43 92.125 42.875C92.1458 42.7292 92.1667 42.5729 92.1875 42.4062C92.2292 41.7604 92.3958 41.0521 92.6875 40.2812C93 39.5104 93.3646 38.7188 93.7812 37.9062C94.2188 37.0938 94.6771 36.2917 95.1562 35.5C95.6354 34.6875 96.0729 33.9271 96.4688 33.2188C96.8854 32.4896 97.2292 31.8438 97.5 31.2812C97.7708 30.7188 97.9062 30.2604 97.9062 29.9062C97.9062 29.5938 97.8125 29.3333 97.625 29.125C97.4583 28.8958 97.1979 28.7812 96.8438 28.7812C95.5104 28.7812 94.2396 29.1771 93.0312 29.9688C91.8438 30.7604 90.7292 31.7396 89.6875 32.9062C88.6458 34.0521 87.6875 35.2708 86.8125 36.5625C85.9375 37.8542 85.1667 39.0104 84.5 40.0312C84.0833 40.7188 83.6979 41.4583 83.3438 42.25C83.0104 43.0208 82.6562 43.75 82.2812 44.4375C81.9062 45.1042 81.4792 45.6562 81 46.0938C80.5417 46.5521 79.9583 46.7812 79.25 46.7812C78.5208 46.7812 77.9479 46.5521 77.5312 46.0938C77.1146 45.6354 76.9062 45.0729 76.9062 44.4062C76.9062 44.0521 77.0521 43.4792 77.3438 42.6875C77.6354 41.8958 78.0104 40.9792 78.4688 39.9375C78.9271 38.8958 79.4375 37.7812 80 36.5938C80.5833 35.3854 81.1562 34.1979 81.7188 33.0312C82.3021 31.8438 82.8542 30.7292 83.375 29.6875C83.8958 28.6458 84.3229 27.7604 84.6562 27.0312ZM127.873 26.1875C128.457 25.7292 128.946 25.3854 129.342 25.1562C129.759 24.9062 130.113 24.7292 130.404 24.625C130.696 24.5 130.957 24.4271 131.186 24.4062C131.436 24.3854 131.686 24.375 131.936 24.375C132.373 24.375 132.686 24.5417 132.873 24.875C133.061 25.1875 133.154 25.5208 133.154 25.875C133.154 26.1667 133.102 26.4375 132.998 26.6875L125.998 41.2812C126.998 40.5312 128.144 39.8021 129.436 39.0938C130.748 38.3646 131.998 37.7188 133.186 37.1562C134.394 36.5729 135.425 36.1042 136.279 35.75C137.154 35.3958 137.654 35.2188 137.779 35.2188C138.3 35.2188 138.759 35.4167 139.154 35.8125C139.55 36.2083 139.748 36.7083 139.748 37.3125C139.748 37.8542 139.54 38.4271 139.123 39.0312C138.727 39.6354 138.019 40.2188 136.998 40.7812C135.54 41.5938 134.269 42.2917 133.186 42.875C132.102 43.4375 131.144 43.9479 130.311 44.4062C129.477 44.8646 128.738 45.2812 128.092 45.6562C127.446 46.0312 126.832 46.4167 126.248 46.8125C125.686 47.2083 125.123 47.625 124.561 48.0625C124.019 48.5208 123.425 49.0521 122.779 49.6562C122.3 50.9062 121.821 52.1042 121.342 53.25C120.884 54.3958 120.457 55.4062 120.061 56.2812C119.686 57.1562 119.373 57.8646 119.123 58.4062C118.873 58.9479 118.738 59.2396 118.717 59.2812C117.029 62.7812 115.175 64.5312 113.154 64.5312C112.321 64.5312 111.644 64.25 111.123 63.6875C110.602 63.1458 110.342 62.4062 110.342 61.4688C110.342 60.5938 110.446 59.7188 110.654 58.8438C110.884 57.9896 111.269 57.0417 111.811 56C112.373 54.9583 113.102 53.7917 113.998 52.5C114.915 51.2292 116.061 49.7292 117.436 48L123.686 35.3438C120.561 39.0521 117.727 41.8854 115.186 43.8438C112.644 45.8021 110.269 46.7812 108.061 46.7812C107.352 46.7812 106.748 46.6146 106.248 46.2812C105.748 45.9688 105.498 45.4375 105.498 44.6875C105.498 43.6458 105.748 42.4688 106.248 41.1562C106.54 40.4479 106.832 39.8021 107.123 39.2188C107.415 38.6146 107.717 38.0208 108.029 37.4375C108.342 36.8333 108.665 36.1875 108.998 35.5C109.352 34.8125 109.727 34.0417 110.123 33.1875C110.54 32.3125 110.988 31.3125 111.467 30.1875C111.967 29.0417 112.519 27.7083 113.123 26.1875C113.54 25.375 114.082 24.7917 114.748 24.4375C115.415 24.0625 116.061 23.875 116.686 23.875C117.332 23.875 117.873 24.0312 118.311 24.3438C118.769 24.6354 118.998 25.0312 118.998 25.5312C118.998 25.7812 118.957 26 118.873 26.1875L113.154 38.0938C112.863 38.6979 112.717 39.1771 112.717 39.5312C112.717 39.8438 112.842 40 113.092 40C113.321 40 113.613 39.8854 113.967 39.6562C114.321 39.4271 114.654 39.1667 114.967 38.875L127.873 26.1875ZM149.497 27.5625C149.392 27.5417 149.299 27.5312 149.215 27.5312C149.132 27.5312 149.038 27.5312 148.934 27.5312C148.142 27.5312 147.403 27.6875 146.715 28C146.028 28.3125 145.392 28.7292 144.809 29.25C144.247 29.75 143.736 30.3229 143.278 30.9688C142.84 31.6146 142.444 32.2604 142.09 32.9062C141.736 33.5312 141.434 34.1354 141.184 34.7188C140.955 35.3021 140.778 35.7917 140.653 36.1875C141.382 35.8125 142.132 35.3854 142.903 34.9062C143.694 34.4271 144.434 33.9688 145.122 33.5312C145.809 33.0938 146.403 32.6979 146.903 32.3438C147.424 31.9896 147.788 31.75 147.997 31.625C148.934 31.0417 149.58 30.5 149.934 30C150.288 29.4792 150.465 29.0312 150.465 28.6562C150.465 28.3438 150.361 28.0938 150.153 27.9062C149.965 27.7188 149.747 27.6042 149.497 27.5625ZM150.622 23.25C152.351 23.25 153.642 23.6667 154.497 24.5C155.351 25.3333 155.778 26.4896 155.778 27.9688C155.778 28.8438 155.549 29.7604 155.09 30.7188C154.632 31.6771 153.84 32.6562 152.715 33.6562C151.59 34.6354 150.08 35.6458 148.184 36.6875C146.309 37.7083 143.955 38.7396 141.122 39.7812C141.226 40.3854 141.549 40.8646 142.09 41.2188C142.632 41.5521 143.351 41.7188 144.247 41.7188C145.205 41.7188 146.226 41.5833 147.309 41.3125C148.413 41.0208 149.497 40.6562 150.559 40.2188C151.642 39.7812 152.694 39.3125 153.715 38.8125C154.736 38.2917 155.653 37.8021 156.465 37.3438C157.299 36.8854 157.986 36.4896 158.528 36.1562C159.09 35.8229 159.465 35.6146 159.653 35.5312C159.84 35.4062 160.007 35.3333 160.153 35.3125C160.319 35.2917 160.465 35.2812 160.59 35.2812C160.84 35.2812 161.049 35.3438 161.215 35.4688C161.382 35.5729 161.517 35.7083 161.622 35.875C161.747 36.0208 161.83 36.1875 161.872 36.375C161.913 36.5417 161.934 36.6875 161.934 36.8125C161.934 37 161.913 37.2292 161.872 37.5C161.83 37.75 161.674 38.0417 161.403 38.375C161.299 38.4792 160.944 38.7604 160.34 39.2188C159.757 39.6771 158.997 40.2188 158.059 40.8438C157.122 41.4688 156.028 42.1354 154.778 42.8438C153.549 43.5312 152.236 44.1667 150.84 44.75C149.465 45.3333 148.028 45.8125 146.528 46.1875C145.028 46.5833 143.549 46.7812 142.09 46.7812C140.84 46.7812 139.726 46.5417 138.747 46.0625C137.788 45.5833 136.965 44.9375 136.278 44.125C135.611 43.3125 135.101 42.375 134.747 41.3125C134.392 40.25 134.215 39.1354 134.215 37.9688C134.215 37.0729 134.392 36.0938 134.747 35.0312C135.101 33.9479 135.611 32.8646 136.278 31.7812C136.944 30.6979 137.757 29.6458 138.715 28.625C139.694 27.5833 140.788 26.6667 141.997 25.875C143.205 25.0833 144.528 24.4479 145.965 23.9688C147.424 23.4896 148.976 23.25 150.622 23.25ZM171.089 27.5625C170.984 27.5417 170.891 27.5312 170.807 27.5312C170.724 27.5312 170.63 27.5312 170.526 27.5312C169.734 27.5312 168.995 27.6875 168.307 28C167.62 28.3125 166.984 28.7292 166.401 29.25C165.839 29.75 165.328 30.3229 164.87 30.9688C164.432 31.6146 164.036 32.2604 163.682 32.9062C163.328 33.5312 163.026 34.1354 162.776 34.7188C162.547 35.3021 162.37 35.7917 162.245 36.1875C162.974 35.8125 163.724 35.3854 164.495 34.9062C165.286 34.4271 166.026 33.9688 166.714 33.5312C167.401 33.0938 167.995 32.6979 168.495 32.3438C169.016 31.9896 169.38 31.75 169.589 31.625C170.526 31.0417 171.172 30.5 171.526 30C171.88 29.4792 172.057 29.0312 172.057 28.6562C172.057 28.3438 171.953 28.0938 171.745 27.9062C171.557 27.7188 171.339 27.6042 171.089 27.5625ZM172.214 23.25C173.943 23.25 175.234 23.6667 176.089 24.5C176.943 25.3333 177.37 26.4896 177.37 27.9688C177.37 28.8438 177.141 29.7604 176.682 30.7188C176.224 31.6771 175.432 32.6562 174.307 33.6562C173.182 34.6354 171.672 35.6458 169.776 36.6875C167.901 37.7083 165.547 38.7396 162.714 39.7812C162.818 40.3854 163.141 40.8646 163.682 41.2188C164.224 41.5521 164.943 41.7188 165.839 41.7188C166.797 41.7188 167.818 41.5833 168.901 41.3125C170.005 41.0208 171.089 40.6562 172.151 40.2188C173.234 39.7812 174.286 39.3125 175.307 38.8125C176.328 38.2917 177.245 37.8021 178.057 37.3438C178.891 36.8854 179.578 36.4896 180.12 36.1562C180.682 35.8229 181.057 35.6146 181.245 35.5312C181.432 35.4062 181.599 35.3333 181.745 35.3125C181.911 35.2917 182.057 35.2812 182.182 35.2812C182.432 35.2812 182.641 35.3438 182.807 35.4688C182.974 35.5729 183.109 35.7083 183.214 35.875C183.339 36.0208 183.422 36.1875 183.464 36.375C183.505 36.5417 183.526 36.6875 183.526 36.8125C183.526 37 183.505 37.2292 183.464 37.5C183.422 37.75 183.266 38.0417 182.995 38.375C182.891 38.4792 182.536 38.7604 181.932 39.2188C181.349 39.6771 180.589 40.2188 179.651 40.8438C178.714 41.4688 177.62 42.1354 176.37 42.8438C175.141 43.5312 173.828 44.1667 172.432 44.75C171.057 45.3333 169.62 45.8125 168.12 46.1875C166.62 46.5833 165.141 46.7812 163.682 46.7812C162.432 46.7812 161.318 46.5417 160.339 46.0625C159.38 45.5833 158.557 44.9375 157.87 44.125C157.203 43.3125 156.693 42.375 156.339 41.3125C155.984 40.25 155.807 39.1354 155.807 37.9688C155.807 37.0729 155.984 36.0938 156.339 35.0312C156.693 33.9479 157.203 32.8646 157.87 31.7812C158.536 30.6979 159.349 29.6458 160.307 28.625C161.286 27.5833 162.38 26.6667 163.589 25.875C164.797 25.0833 166.12 24.4479 167.557 23.9688C169.016 23.4896 170.568 23.25 172.214 23.25Z" fill="#E3F0F4"/>
</svg>
